<?xml version="1.0" encoding="iso-8859-1"?>
<!-- Generator: Adobe Illustrator 19.0.0, SVG Export Plug-In . SVG Version: 6.00 Build 0)  -->
<svg version="1.1" id="Capa_1" xmlns="http://www.w3.org/2000/svg" xmlns:xlink="http://www.w3.org/1999/xlink" x="0px" y="0px"
	 viewBox="0 0 368 368" style="enable-background:new 0 0 368 368;" xml:space="preserve">
<path style="fill:#CCE4FF;" d="M360,56v32H120V40h224C352.8,40,360,47.2,360,56z"/>
<g>
	<path style="fill:#007AFF;" d="M344,32H128v-8c0-13.232-10.768-24-24-24H24C10.768,0,0,10.768,0,24v272c0,13.232,10.768,24,24,24
		h48c4.424,0,8-3.584,8-8s-3.576-8-8-8H24c-4.416,0-8-3.592-8-8V24c0-4.408,3.584-8,8-8h80c4.416,0,8,3.592,8,8v64
		c0,4.416,3.576,8,8,8h232v200c0,4.408-3.584,8-8,8h-48c-4.424,0-8,3.584-8,8s3.576,8,8,8h48c13.232,0,24-10.768,24-24V56
		C368,42.768,357.232,32,344,32z M128,80V48h216c4.416,0,8,3.592,8,8v24H128z"/>
	<path style="fill:#007AFF;" d="M112,296c0,39.696,32.296,72,72,72s72-32.304,72-72c0-36.992-28.056-67.536-64-71.528v-69.16
		l34.344,34.344c1.56,1.56,3.608,2.344,5.656,2.344s4.096-0.784,5.656-2.344c3.128-3.128,3.128-8.184,0-11.312l-47.992-47.992
		c-0.736-0.744-1.624-1.328-2.608-1.736c-1.952-0.808-4.16-0.808-6.112,0c-0.984,0.408-1.864,0.992-2.608,1.736l-47.992,47.992
		c-3.128,3.128-3.128,8.184,0,11.312s8.184,3.128,11.312,0L176,155.312v69.16C140.056,228.464,112,259.008,112,296z M240,296
		c0,30.88-25.128,56-56,56s-56-25.12-56-56c0-28.152,20.912-51.456,48-55.36V296c0,4.416,3.576,8,8,8c4.424,0,8-3.584,8-8v-55.36
		C219.088,244.544,240,267.848,240,296z"/>
</g>
<g>
</g>
<g>
</g>
<g>
</g>
<g>
</g>
<g>
</g>
<g>
</g>
<g>
</g>
<g>
</g>
<g>
</g>
<g>
</g>
<g>
</g>
<g>
</g>
<g>
</g>
<g>
</g>
<g>
</g>
</svg>
