<?xml version="1.0" encoding="iso-8859-1"?>
<!-- Generator: Adobe Illustrator 19.0.0, SVG Export Plug-In . SVG Version: 6.00 Build 0)  -->
<svg version="1.1" id="Capa_1" xmlns="http://www.w3.org/2000/svg" xmlns:xlink="http://www.w3.org/1999/xlink" x="0px" y="0px"
	 viewBox="0 0 368 368" style="enable-background:new 0 0 368 368;" xml:space="preserve">
<g>
	<path style="fill:#CCE4FF;" d="M360,88v208c0,8.8-7.2,16-16,16h-72l-88-176L96,312H24c-8.8,0-16-7.2-16-16V24c0-8.8,7.2-16,16-16
		h80c8.8,0,16,7.2,16,16v16v48H360z"/>
	<polygon style="fill:#CCE4FF;" points="272,312 296,360 184,312 184,136 	"/>
</g>
<path style="fill:#007AFF;" d="M344,32H128v-8c0-13.232-10.768-24-24-24H24C10.768,0,0,10.768,0,24v272c0,13.232,10.768,24,24,24
	h59.056l-18.208,36.424c-1.504,3-0.968,6.624,1.336,9.064c2.296,2.44,5.864,3.184,8.976,1.864L184,320.704l108.848,46.648
	c1.016,0.44,2.088,0.648,3.152,0.648c2.16,0,4.28-0.872,5.824-2.512c2.304-2.44,2.832-6.064,1.336-9.064L284.944,320H344
	c13.232,0,24-10.768,24-24V56C368,42.768,357.232,32,344,32z M344,48c4.408,0,8,3.592,8,8v24H128V48H344z M176,169.888v136.84
	l-87.08,37.32L176,169.888z M192,306.728v-136.84l87.08,174.16L192,306.728z M344,304h-67.056L191.16,132.424
	c-0.344-0.688-0.792-1.288-1.312-1.8c-1.464-1.592-3.52-2.624-5.848-2.624s-4.384,1.032-5.84,2.616
	c-0.52,0.512-0.968,1.112-1.312,1.8L91.056,304H24c-4.408,0-8-3.592-8-8V24c0-4.408,3.592-8,8-8h80c4.408,0,8,3.592,8,8v64
	c0,4.416,3.584,8,8,8h232v200C352,300.408,348.408,304,344,304z"/>
<g>
</g>
<g>
</g>
<g>
</g>
<g>
</g>
<g>
</g>
<g>
</g>
<g>
</g>
<g>
</g>
<g>
</g>
<g>
</g>
<g>
</g>
<g>
</g>
<g>
</g>
<g>
</g>
<g>
</g>
</svg>
