<?xml version="1.0" encoding="iso-8859-1"?>
<!-- Generator: Adobe Illustrator 19.0.0, SVG Export Plug-In . SVG Version: 6.00 Build 0)  -->
<svg version="1.1" id="Capa_1" xmlns="http://www.w3.org/2000/svg" xmlns:xlink="http://www.w3.org/1999/xlink" x="0px" y="0px"
	 viewBox="0 0 368 368" style="enable-background:new 0 0 368 368;" xml:space="preserve">
<g>
	<circle style="fill:#CCE4FF;" cx="272" cy="232" r="80"/>
	<path style="fill:#CCE4FF;" d="M176,56v48h96v48c-44.16,0-80,35.84-80,80s35.84,80,80,80v32c0,8.8-7.2,16-16,16H32
		c-8.88,0-16-7.2-16-16V24c0-8.8,7.12-16,16-16h144V56z"/>
</g>
<g>
	<path style="fill:#007AFF;" d="M304,224h-24v-24c0-4.416-3.576-8-8-8s-8,3.584-8,8v32c0,4.416,3.576,8,8,8h32c4.424,0,8-3.584,8-8
		S308.424,224,304,224z"/>
	<path style="fill:#007AFF;" d="M280,144.408V104V88c0-2.12-0.84-4.16-2.344-5.656l-80-80C196.16,0.84,194.128,0,192,0H32
		C18.768,0,8,10.768,8,24v320c0,13.232,10.768,24,24,24h224c13.232,0,24-10.768,24-24v-24.408c44.784-4.056,80-41.768,80-87.592
		S324.784,148.464,280,144.408z M184,16h4.688L264,91.312V96h-80V16z M256,352H32c-4.416,0-8-3.592-8-8V24c0-4.408,3.584-8,8-8h136
		v32H64c-4.424,0-8,3.584-8,8v256c0,4.416,3.576,8,8,8h96c4.424,0,8-3.584,8-8s-3.576-8-8-8H72V64h96v40c0,4.416,3.576,8,8,8h88
		v32.408c-44.784,4.056-80,41.768-80,87.592s35.216,83.536,80,87.592V344C264,348.408,260.416,352,256,352z M272,304
		c-39.704,0-72-32.304-72-72s32.296-72,72-72s72,32.304,72,72S311.704,304,272,304z"/>
</g>
<g>
</g>
<g>
</g>
<g>
</g>
<g>
</g>
<g>
</g>
<g>
</g>
<g>
</g>
<g>
</g>
<g>
</g>
<g>
</g>
<g>
</g>
<g>
</g>
<g>
</g>
<g>
</g>
<g>
</g>
</svg>
