<?xml version="1.0" encoding="iso-8859-1"?>
<!-- Generator: Adobe Illustrator 19.0.0, SVG Export Plug-In . SVG Version: 6.00 Build 0)  -->
<svg version="1.1" id="Capa_1" xmlns="http://www.w3.org/2000/svg" xmlns:xlink="http://www.w3.org/1999/xlink" x="0px" y="0px"
	 viewBox="0 0 368.006 368.006" style="enable-background:new 0 0 368.006 368.006;" xml:space="preserve">
<path style="fill:#CCE4FF;" d="M312,120.003v48H88l-53.36,96l-26.64,48v-240c0-8.8,7.2-16,16-16h64c8.8,0,16,7.2,16,16v16
	c0,8.8,7.2,16,16,16h176C304.8,104.003,312,111.203,312,120.003z"/>
<path style="fill:#007AFF;" d="M360,160.003h-40v-40c0-13.232-10.768-24-24-24H120c-4.408,0-8-3.592-8-8v-16
	c0-13.232-10.768-24-24-24H24c-13.232,0-24,10.768-24,24v240c0,0.016,0.008,0.024,0.008,0.04c0.008,0.936,0.224,1.848,0.552,2.736
	c0.08,0.224,0.168,0.432,0.272,0.648c0.104,0.208,0.152,0.44,0.272,0.64c0.328,0.56,0.736,1.048,1.168,1.504
	c0.032,0.032,0.056,0.08,0.088,0.112c0.648,0.648,1.424,1.12,2.24,1.512c0.208,0.096,0.416,0.176,0.632,0.256
	c0.88,0.32,1.8,0.552,2.768,0.552h272c2.904,0,5.584-1.576,7-4.12l26.64-48c0,0,0-0.008,0.008-0.008L367,171.891
	c1.376-2.48,1.336-5.504-0.096-7.944C365.456,161.507,362.832,160.003,360,160.003z M24,64.003h64c4.408,0,8,3.592,8,8v16
	c0,13.232,10.768,24,24,24h176c4.408,0,8,3.592,8,8v40H88c-2.904,0-5.584,1.576-6.992,4.112l-53.36,95.992l-0.008,0.008L16,281.099
	V72.003C16,67.595,19.592,64.003,24,64.003z M275.288,304.003H21.592l17.76-32h253.696L275.288,304.003z M301.936,256.003H48.24
	l44.464-80H346.4L301.936,256.003z"/>
<g>
</g>
<g>
</g>
<g>
</g>
<g>
</g>
<g>
</g>
<g>
</g>
<g>
</g>
<g>
</g>
<g>
</g>
<g>
</g>
<g>
</g>
<g>
</g>
<g>
</g>
<g>
</g>
<g>
</g>
</svg>
