<?xml version="1.0" encoding="iso-8859-1"?>
<!-- Generator: Adobe Illustrator 19.0.0, SVG Export Plug-In . SVG Version: 6.00 Build 0)  -->
<svg version="1.1" id="Capa_1" xmlns="http://www.w3.org/2000/svg" xmlns:xlink="http://www.w3.org/1999/xlink" x="0px" y="0px"
	 viewBox="0 0 368 368" style="enable-background:new 0 0 368 368;" xml:space="preserve">
<path style="fill:#CCE4FF;" d="M328,104v240c0,8.8-7.2,16-16,16H56c-8.88,0-16-7.2-16-16V24c0-8.8,7.12-16,16-16h176v96H328z
	 M280,216v-64H88v64H280z"/>
<g>
	<path style="fill:#007AFF;" d="M32,344c0,13.232,10.768,24,24,24h256c13.232,0,24-10.768,24-24V88c0-2.12-0.84-4.16-2.344-5.656
		l-80-80C252.16,0.84,250.128,0,248,0H56C42.768,0,32,10.768,32,24V344z M240,16h4.688L320,91.312V96h-80V16z M48,24
		c0-4.408,3.592-8,8-8h168v88c0,4.416,3.576,8,8,8h88v232c0,4.408-3.584,8-8,8H56c-4.408,0-8-3.592-8-8V24z"/>
	<path style="fill:#007AFF;" d="M88,224h192c4.424,0,8-3.584,8-8v-64c0-4.416-3.576-8-8-8H88c-4.416,0-8,3.584-8,8v64
		C80,220.416,83.584,224,88,224z M96,160h176v48H96V160z"/>
	<path style="fill:#007AFF;" d="M88,112h96c4.416,0,8-3.584,8-8s-3.584-8-8-8H88c-4.416,0-8,3.584-8,8S83.584,112,88,112z"/>
	<path style="fill:#007AFF;" d="M88,272h192c4.424,0,8-3.584,8-8s-3.576-8-8-8H88c-4.416,0-8,3.584-8,8S83.584,272,88,272z"/>
	<path style="fill:#007AFF;" d="M280,304h-96c-4.416,0-8,3.584-8,8s3.584,8,8,8h96c4.424,0,8-3.584,8-8S284.424,304,280,304z"/>
	<path style="fill:#007AFF;" d="M88,64h96c4.416,0,8-3.584,8-8s-3.584-8-8-8H88c-4.416,0-8,3.584-8,8S83.584,64,88,64z"/>
</g>
<g>
</g>
<g>
</g>
<g>
</g>
<g>
</g>
<g>
</g>
<g>
</g>
<g>
</g>
<g>
</g>
<g>
</g>
<g>
</g>
<g>
</g>
<g>
</g>
<g>
</g>
<g>
</g>
<g>
</g>
</svg>
