<?xml version="1.0" encoding="iso-8859-1"?>
<!-- Generator: Adobe Illustrator 19.0.0, SVG Export Plug-In . SVG Version: 6.00 Build 0)  -->
<svg version="1.1" id="Capa_1" xmlns="http://www.w3.org/2000/svg" xmlns:xlink="http://www.w3.org/1999/xlink" x="0px" y="0px"
	 viewBox="0 0 368 368" style="enable-background:new 0 0 368 368;" xml:space="preserve">
<path style="fill:#CCE4FF;" d="M360,104v240c0,8.8-7.2,16-16,16H24c-8.8,0-16-7.2-16-16V24c0-8.8,7.2-16,16-16h80
	c8.8,0,16,7.2,16,16v32v48H360z M264,232c0-44.16-35.84-80-80-80s-80,35.84-80,80s35.84,80,80,80S264,276.16,264,232z"/>
<g>
	<path style="fill:#007AFF;" d="M344,48H128V24c0-13.232-10.768-24-24-24H24C10.768,0,0,10.768,0,24v320c0,13.232,10.768,24,24,24
		h320c13.232,0,24-10.768,24-24V72C368,58.768,357.232,48,344,48z M352,344c0,4.408-3.592,8-8,8H24c-4.408,0-8-3.592-8-8V24
		c0-4.408,3.592-8,8-8h80c4.408,0,8,3.592,8,8v80c0,4.416,3.584,8,8,8h232V344z M352,96H128V64h216c4.408,0,8,3.592,8,8V96z"/>
	<path style="fill:#007AFF;" d="M184,320c48.52,0,88-39.48,88-88s-39.48-88-88-88s-88,39.48-88,88S135.48,320,184,320z M184,160
		c39.696,0,72,32.304,72,72s-32.304,72-72,72s-72-32.304-72-72S144.304,160,184,160z"/>
	<path style="fill:#007AFF;" d="M152,240h24v24c0,4.416,3.584,8,8,8c4.416,0,8-3.584,8-8v-24h24c4.416,0,8-3.584,8-8s-3.584-8-8-8
		h-24v-24c0-4.416-3.584-8-8-8s-8,3.584-8,8v24h-24c-4.416,0-8,3.584-8,8S147.584,240,152,240z"/>
</g>
<g>
</g>
<g>
</g>
<g>
</g>
<g>
</g>
<g>
</g>
<g>
</g>
<g>
</g>
<g>
</g>
<g>
</g>
<g>
</g>
<g>
</g>
<g>
</g>
<g>
</g>
<g>
</g>
<g>
</g>
</svg>
