<?xml version="1.0" encoding="iso-8859-1"?>
<!-- Generator: Adobe Illustrator 19.0.0, SVG Export Plug-In . SVG Version: 6.00 Build 0)  -->
<svg version="1.1" id="Capa_1" xmlns="http://www.w3.org/2000/svg" xmlns:xlink="http://www.w3.org/1999/xlink" x="0px" y="0px"
	 viewBox="0 0 368 368" style="enable-background:new 0 0 368 368;" xml:space="preserve">
<path style="fill:#CCE4FF;" d="M232,56v48h96v240c0,8.8-7.2,16-16,16H56c-8.8,0-16-7.2-16-16V24c0-8.8,7.2-16,16-16h176V56z
	 M264,232c0-44.16-35.84-80-80-80s-80,35.84-80,80s35.84,80,80,80S264,276.16,264,232z"/>
<g>
	<path style="fill:#007AFF;" d="M184,320c48.52,0,88-39.48,88-88s-39.48-88-88-88s-88,39.48-88,88S135.48,320,184,320z M184,160
		c39.696,0,72,32.304,72,72s-32.304,72-72,72s-72-32.304-72-72S144.304,160,184,160z"/>
	<path style="fill:#007AFF;" d="M152,240h24v24c0,4.416,3.584,8,8,8c4.416,0,8-3.584,8-8v-24h24c4.416,0,8-3.584,8-8s-3.584-8-8-8
		h-24v-24c0-4.416-3.584-8-8-8s-8,3.584-8,8v24h-24c-4.416,0-8,3.584-8,8S147.584,240,152,240z"/>
	<path style="fill:#007AFF;" d="M312,368c13.232,0,24-10.768,24-24V88c0-2.12-0.84-4.16-2.344-5.656l-80-80
		C252.16,0.84,250.12,0,248,0H56C42.768,0,32,10.768,32,24v320c0,13.232,10.768,24,24,24H312z M240,16h4.688L320,91.312V96h-80V16z
		 M48,344V24c0-4.408,3.592-8,8-8h168v32H88c-4.416,0-8,3.584-8,8v48c0,4.416,3.584,8,8,8s8-3.584,8-8V64h128v40
		c0,4.416,3.584,8,8,8h88v232c0,4.408-3.592,8-8,8H56C51.592,352,48,348.408,48,344z"/>
</g>
<g>
</g>
<g>
</g>
<g>
</g>
<g>
</g>
<g>
</g>
<g>
</g>
<g>
</g>
<g>
</g>
<g>
</g>
<g>
</g>
<g>
</g>
<g>
</g>
<g>
</g>
<g>
</g>
<g>
</g>
</svg>
