<?xml version="1.0" encoding="iso-8859-1"?>
<!-- Generator: Adobe Illustrator 19.0.0, SVG Export Plug-In . SVG Version: 6.00 Build 0)  -->
<svg version="1.1" id="Capa_1" xmlns="http://www.w3.org/2000/svg" xmlns:xlink="http://www.w3.org/1999/xlink" x="0px" y="0px"
	 viewBox="0 0 368 368" style="enable-background:new 0 0 368 368;" xml:space="preserve">
<g>
	<path style="fill:#CCE4FF;" d="M360,88v144c0,8.8-7.2,16-16,16h-64v-48v-32c0-8.8-7.2-16-16-16H88v-16c0-2.72-0.72-5.36-1.92-7.6
		L88,128V24c0-8.8,7.2-16,16-16h48c8.8,0,16,7.2,16,16v16v48H360z"/>
	<path style="fill:#CCE4FF;" d="M280,248v96c0,8.8-7.2,16-16,16H24c-8.8,0-16-7.2-16-16V136c0-8.8,7.2-16,16-16h48
		c6.08,0,11.36,3.44,14.08,8.4c1.2,2.24,1.92,4.88,1.92,7.6v16v48h192V248z M232,312v-64H56v64H232z"/>
</g>
<g>
	<path style="fill:#007AFF;" d="M344,32H176v-8c0-13.232-10.768-24-24-24h-48C90.768,0,80,10.768,80,24v89.56
		c-2.552-0.92-5.208-1.56-8-1.56H24c-13.232,0-24,10.768-24,24v208c0,13.232,10.768,24,24,24h240c13.232,0,24-10.768,24-24v-88h56
		c13.232,0,24-10.768,24-24V56C368,42.768,357.232,32,344,32z M344,48c4.408,0,8,3.592,8,8v24H176V48H344z M272,192H96v-32h168
		c4.408,0,8,3.592,8,8V192z M272,344c0,4.408-3.592,8-8,8H24c-4.408,0-8-3.592-8-8V136c0-4.408,3.592-8,8-8h48
		c2.92,0,5.632,1.624,7.024,4.176C79.656,133.344,80,134.704,80,136v16v48c0,4.416,3.584,8,8,8h184V344z M344,240h-56v-72
		c0-13.232-10.768-24-24-24H96v-8c0-1.656-0.272-3.304-0.616-4.936C95.776,130.12,96,129.088,96,128V24c0-4.408,3.592-8,8-8h48
		c4.408,0,8,3.592,8,8v16v48c0,4.416,3.584,8,8,8h184v136C352,236.408,348.408,240,344,240z"/>
	<path style="fill:#007AFF;" d="M232,240H56c-4.416,0-8,3.584-8,8v64c0,4.416,3.584,8,8,8h176c4.416,0,8-3.584,8-8v-64
		C240,243.584,236.416,240,232,240z M224,304H64v-48h160V304z"/>
</g>
<g>
</g>
<g>
</g>
<g>
</g>
<g>
</g>
<g>
</g>
<g>
</g>
<g>
</g>
<g>
</g>
<g>
</g>
<g>
</g>
<g>
</g>
<g>
</g>
<g>
</g>
<g>
</g>
<g>
</g>
</svg>
