<?xml version="1.0" encoding="iso-8859-1"?>
<!-- Generator: Adobe Illustrator 19.0.0, SVG Export Plug-In . SVG Version: 6.00 Build 0)  -->
<svg version="1.1" id="Capa_1" xmlns="http://www.w3.org/2000/svg" xmlns:xlink="http://www.w3.org/1999/xlink" x="0px" y="0px"
	 viewBox="0 0 368 368" style="enable-background:new 0 0 368 368;" xml:space="preserve">
<path style="fill:#CCE4FF;" d="M328,96v152c0,8.8-7.2,16-16,16H56c-8.8,0-16-7.2-16-16V24c0-8.8,7.2-16,16-16h48c8.8,0,16,7.2,16,16
	v24v48H328z"/>
<g>
	<path style="fill:#007AFF;" d="M32,248c0,13.232,10.768,24,24,24h256c13.232,0,24-10.768,24-24V64c0-13.232-10.768-24-24-24H128V24
		c0-13.232-10.768-24-24-24H56C42.768,0,32,10.768,32,24V248z M128,56h184c4.416,0,8,3.592,8,8v24H128V56z M48,24
		c0-4.408,3.592-8,8-8h48c4.408,0,8,3.592,8,8v72c0,4.416,3.584,8,8,8h200v144c0,4.408-3.584,8-8,8H56c-4.408,0-8-3.592-8-8V24z"/>
	<path style="fill:#007AFF;" d="M32,360c0,4.416,3.584,8,8,8h288c4.424,0,8-3.584,8-8v-48c0-4.416-3.576-8-8-8H40
		c-4.416,0-8,3.584-8,8V360z M48,320h272v32H48V320z"/>
	<path style="fill:#007AFF;" d="M224,224h56c4.424,0,8-3.584,8-8v-56c0-4.416-3.576-8-8-8s-8,3.584-8,8v48h-48c-4.424,0-8,3.584-8,8
		S219.576,224,224,224z"/>
</g>
<g>
</g>
<g>
</g>
<g>
</g>
<g>
</g>
<g>
</g>
<g>
</g>
<g>
</g>
<g>
</g>
<g>
</g>
<g>
</g>
<g>
</g>
<g>
</g>
<g>
</g>
<g>
</g>
<g>
</g>
</svg>
