<?xml version="1.0" encoding="iso-8859-1"?>
<!-- Generator: Adobe Illustrator 19.0.0, SVG Export Plug-In . SVG Version: 6.00 Build 0)  -->
<svg version="1.1" id="Capa_1" xmlns="http://www.w3.org/2000/svg" xmlns:xlink="http://www.w3.org/1999/xlink" x="0px" y="0px"
	 viewBox="0 0 368 368" style="enable-background:new 0 0 368 368;" xml:space="preserve">
<path style="fill:#CCE4FF;" d="M312,104v192H56v-64h160v-64H56V24c0-8.8,7.12-16,16-16h144v96H312z"/>
<path style="fill:#007AFF;" d="M237.656,2.344C236.16,0.84,234.128,0,232,0H72C58.768,0,48,10.768,48,24v144v64v112
	c0,13.232,10.768,24,24,24h224c13.232,0,24-10.768,24-24V104V88c0-2.12-0.84-4.16-2.344-5.656L237.656,2.344z M224,16h4.688
	L304,91.312V96h-80V16z M72,16h136v88c0,4.416,3.576,8,8,8h88v176H64v-48h152c4.424,0,8-3.584,8-8v-64c0-4.416-3.576-8-8-8H64V24
	C64,19.592,67.584,16,72,16z M64,176h144v48H64V176z M296,352H72c-4.416,0-8-3.592-8-8v-40h240v40C304,348.408,300.416,352,296,352z
	"/>
<g>
</g>
<g>
</g>
<g>
</g>
<g>
</g>
<g>
</g>
<g>
</g>
<g>
</g>
<g>
</g>
<g>
</g>
<g>
</g>
<g>
</g>
<g>
</g>
<g>
</g>
<g>
</g>
<g>
</g>
</svg>
