<?xml version="1.0" encoding="iso-8859-1"?>
<!-- Generator: Adobe Illustrator 19.0.0, SVG Export Plug-In . SVG Version: 6.00 Build 0)  -->
<svg version="1.1" id="Capa_1" xmlns="http://www.w3.org/2000/svg" xmlns:xlink="http://www.w3.org/1999/xlink" x="0px" y="0px"
	 viewBox="0 0 368 368" style="enable-background:new 0 0 368 368;" xml:space="preserve">
<path style="fill:#CCE4FF;" d="M296,120v160c0,8.8-7.2,16-16,16H120H24c-8.8,0-16-7.2-16-16V48c0-8.8,7.2-16,16-16h48
	c8.8,0,16,7.2,16,16v24v48H296z M248,248v-80H120H56v80h64H248z"/>
<g>
	<path style="fill:#007AFF;" d="M317.656,2.344C316.16,0.84,314.128,0,312,0H120c-4.416,0-8,3.584-8,8s3.584,8,8,8h188.688
		L352,59.312V352H128v-48h152c13.232,0,24-10.768,24-24V88c0-13.232-10.768-24-24-24H96V48c0-13.232-10.768-24-24-24H24
		C10.768,24,0,34.768,0,48v232c0,13.232,10.768,24,24,24h88v56c0,4.416,3.584,8,8,8h240c4.424,0,8-3.584,8-8V56
		c0-2.12-0.84-4.16-2.344-5.656L317.656,2.344z M96,80h184c4.416,0,8,3.592,8,8v24H96V80z M16,280V48c0-4.408,3.592-8,8-8h48
		c4.408,0,8,3.592,8,8v72c0,4.416,3.584,8,8,8h200v152c0,4.408-3.584,8-8,8H24C19.592,288,16,284.408,16,280z"/>
	<path style="fill:#007AFF;" d="M248,256c4.424,0,8-3.584,8-8v-80c0-4.416-3.576-8-8-8H56c-4.416,0-8,3.584-8,8v80
		c0,4.416,3.584,8,8,8H248z M240,240H128v-64h112V240z M64,176h48v64H64V176z"/>
</g>
<g>
</g>
<g>
</g>
<g>
</g>
<g>
</g>
<g>
</g>
<g>
</g>
<g>
</g>
<g>
</g>
<g>
</g>
<g>
</g>
<g>
</g>
<g>
</g>
<g>
</g>
<g>
</g>
<g>
</g>
</svg>
