<?xml version="1.0" encoding="iso-8859-1"?>
<!-- Generator: Adobe Illustrator 19.0.0, SVG Export Plug-In . SVG Version: 6.00 Build 0)  -->
<svg version="1.1" id="Capa_1" xmlns="http://www.w3.org/2000/svg" xmlns:xlink="http://www.w3.org/1999/xlink" x="0px" y="0px"
	 viewBox="0 0 368 368" style="enable-background:new 0 0 368 368;" xml:space="preserve">
<path style="fill:#CCE4FF;" d="M360,56v32H120V40h224C352.8,40,360,47.2,360,56z"/>
<g>
	<path style="fill:#007AFF;" d="M344,32H128v-8c0-13.232-10.768-24-24-24H24C10.768,0,0,10.768,0,24v272c0,13.232,10.768,24,24,24
		h64c4.416,0,8-3.584,8-8s-3.584-8-8-8H24c-4.408,0-8-3.592-8-8V24c0-4.408,3.592-8,8-8h80c4.408,0,8,3.592,8,8v64
		c0,4.416,3.584,8,8,8h232v200c0,4.408-3.584,8-8,8h-64c-4.424,0-8,3.584-8,8s3.576,8,8,8h64c13.232,0,24-10.768,24-24V56
		C368,42.768,357.232,32,344,32z M128,80V48h216c4.416,0,8,3.592,8,8v24H128z"/>
	<path style="fill:#007AFF;" d="M256,200c0-39.696-32.296-72-72-72c-39.696,0-72,32.304-72,72c0,36.992,28.056,67.528,64,71.528
		v69.16l-34.344-34.344c-3.128-3.128-8.184-3.128-11.312,0s-3.128,8.184,0,11.312l48,48c0.736,0.736,1.624,1.32,2.6,1.728
		c0.976,0.4,2.016,0.616,3.056,0.616c1.04,0,2.08-0.216,3.056-0.616c0.976-0.408,1.864-0.992,2.6-1.728l48-48
		c3.128-3.128,3.128-8.184,0-11.312s-8.184-3.128-11.312,0L192,340.688v-69.16C227.944,267.536,256,236.992,256,200z M128,200
		c0-30.88,25.12-56,56-56c30.872,0,56,25.12,56,56c0,28.152-20.912,51.456-48,55.36V200c0-4.416-3.584-8-8-8s-8,3.584-8,8v55.36
		C148.904,251.456,128,228.152,128,200z"/>
</g>
<g>
</g>
<g>
</g>
<g>
</g>
<g>
</g>
<g>
</g>
<g>
</g>
<g>
</g>
<g>
</g>
<g>
</g>
<g>
</g>
<g>
</g>
<g>
</g>
<g>
</g>
<g>
</g>
<g>
</g>
</svg>
