<?xml version="1.0" encoding="iso-8859-1"?>
<!-- Generator: Adobe Illustrator 19.0.0, SVG Export Plug-In . SVG Version: 6.00 Build 0)  -->
<svg version="1.1" id="Capa_1" xmlns="http://www.w3.org/2000/svg" xmlns:xlink="http://www.w3.org/1999/xlink" x="0px" y="0px"
	 viewBox="0 0 368 368" style="enable-background:new 0 0 368 368;" xml:space="preserve">
<path style="fill:#CCE4FF;" d="M232,56v48h96v240c0,8.8-7.2,16-16,16H56c-8.88,0-16-7.2-16-16V24c0-8.8,7.12-16,16-16h176V56z
	 M264,232c0-44.16-35.84-80-80-80s-80,35.84-80,80s35.84,80,80,80S264,276.16,264,232z"/>
<g>
	<path style="fill:#007AFF;" d="M96,232c0,48.52,39.48,88,88,88s88-39.48,88-88s-39.48-88-88-88S96,183.48,96,232z M256,232
		c0,39.696-32.296,72-72,72s-72-32.304-72-72s32.296-72,72-72S256,192.304,256,232z"/>
	<path style="fill:#007AFF;" d="M253.656,2.344C252.16,0.84,250.128,0,248,0H56C42.768,0,32,10.768,32,24v320
		c0,13.232,10.768,24,24,24h256c13.232,0,24-10.768,24-24V88c0-2.12-0.84-4.16-2.344-5.656L253.656,2.344z M320,344
		c0,4.408-3.584,8-8,8H56c-4.416,0-8-3.592-8-8V24c0-4.408,3.584-8,8-8h168v32H88c-4.424,0-8,3.584-8,8v48c0,4.416,3.576,8,8,8
		s8-3.584,8-8V64h128v40c0,4.416,3.576,8,8,8h88V344z M320,96h-80V16h4.688L320,91.312V96z"/>
	<path style="fill:#007AFF;" d="M165.656,202.344c-3.128-3.128-8.184-3.128-11.312,0s-3.128,8.184,0,11.312L172.688,232
		l-18.344,18.344c-3.128,3.128-3.128,8.184,0,11.312c1.56,1.56,3.608,2.344,5.656,2.344s4.096-0.784,5.656-2.344L184,243.312
		l18.344,18.344c1.56,1.56,3.608,2.344,5.656,2.344s4.096-0.784,5.656-2.344c3.128-3.128,3.128-8.184,0-11.312L195.312,232
		l18.344-18.344c3.128-3.128,3.128-8.184,0-11.312s-8.184-3.128-11.312,0L184,220.688L165.656,202.344z"/>
</g>
<g>
</g>
<g>
</g>
<g>
</g>
<g>
</g>
<g>
</g>
<g>
</g>
<g>
</g>
<g>
</g>
<g>
</g>
<g>
</g>
<g>
</g>
<g>
</g>
<g>
</g>
<g>
</g>
<g>
</g>
</svg>
