<?xml version="1.0" encoding="iso-8859-1"?>
<!-- Generator: Adobe Illustrator 19.0.0, SVG Export Plug-In . SVG Version: 6.00 Build 0)  -->
<svg version="1.1" id="Capa_1" xmlns="http://www.w3.org/2000/svg" xmlns:xlink="http://www.w3.org/1999/xlink" x="0px" y="0px"
	 viewBox="0 0 368 368" style="enable-background:new 0 0 368 368;" xml:space="preserve">
<path style="fill:#CCE4FF;" d="M234.32,172.56C221.44,159.84,203.52,152,184,152c-39.76,0-72,32.24-72,72s32.24,72,72,72
	s72-32.24,72-72C256,203.84,247.68,185.6,234.32,172.56z M360,88v256c0,8.8-7.2,16-16,16H24c-8.8,0-16-7.2-16-16V24
	c0-8.8,7.2-16,16-16h80c8.8,0,16,7.2,16,16v16v48H360z"/>
<g>
	<path style="fill:#007AFF;" d="M344,32H128v-8c0-13.232-10.768-24-24-24H24C10.768,0,0,10.768,0,24v320c0,13.232,10.768,24,24,24
		h320c13.232,0,24-10.768,24-24V56C368,42.768,357.232,32,344,32z M352,344c0,4.408-3.584,8-8,8H24c-4.416,0-8-3.592-8-8V24
		c0-4.408,3.584-8,8-8h80c4.416,0,8,3.592,8,8v64c0,4.416,3.576,8,8,8h232V344z M352,80H128V48h216c4.416,0,8,3.592,8,8V80z"/>
	<path style="fill:#007AFF;" d="M184,304c44.112,0,80-35.888,80-80c0-19.456-6.928-37.768-19.544-52.264l10.208-15.304
		c2.448-3.68,1.448-8.648-2.232-11.096c-3.68-2.456-8.64-1.448-11.096,2.224l-8.68,13.016C218.816,149.864,201.88,144,184,144
		c-44.112,0-80,35.888-80,80S139.888,304,184,304z M184,160c14.672,0,28.56,4.896,39.784,13.896l-40.168,60.264L166.4,211.2
		c-2.648-3.528-7.664-4.256-11.192-1.6c-3.536,2.648-4.256,7.664-1.6,11.2l24,32c1.512,2.016,3.88,3.2,6.392,3.2
		c0.072,0,0.152,0,0.216,0c2.592-0.072,4.992-1.4,6.44-3.56l44.504-66.744C243.448,196.688,248,209.96,248,224
		c0,35.288-28.712,64-64,64s-64-28.712-64-64S148.712,160,184,160z"/>
</g>
<g>
</g>
<g>
</g>
<g>
</g>
<g>
</g>
<g>
</g>
<g>
</g>
<g>
</g>
<g>
</g>
<g>
</g>
<g>
</g>
<g>
</g>
<g>
</g>
<g>
</g>
<g>
</g>
<g>
</g>
</svg>
