<?xml version="1.0" encoding="iso-8859-1"?>
<!-- Generator: Adobe Illustrator 19.0.0, SVG Export Plug-In . SVG Version: 6.00 Build 0)  -->
<svg version="1.1" id="Capa_1" xmlns="http://www.w3.org/2000/svg" xmlns:xlink="http://www.w3.org/1999/xlink" x="0px" y="0px"
	 viewBox="0 0 368 368" style="enable-background:new 0 0 368 368;" xml:space="preserve">
<path style="fill:#CCE4FF;" d="M232,56v48h96v240c0,8.8-7.2,16-16,16H56c-8.88,0-16-7.2-16-16V24c0-8.8,7.12-16,16-16h176V56z
	 M234.32,172.56C221.44,159.84,203.52,152,184,152c-39.76,0-72,32.24-72,72s32.24,72,72,72s72-32.24,72-72
	C256,203.84,247.68,185.6,234.32,172.56z"/>
<g>
	<path style="fill:#007AFF;" d="M312,368c13.232,0,24-10.768,24-24V88c0-2.12-0.84-4.16-2.344-5.656l-80-80
		C252.16,0.84,250.128,0,248,0H56C42.768,0,32,10.768,32,24v320c0,13.232,10.768,24,24,24H312z M240,16h4.688L320,91.312V96h-80V16z
		 M48,344V24c0-4.408,3.584-8,8-8h168v32H88c-4.424,0-8,3.584-8,8v48c0,4.416,3.576,8,8,8s8-3.584,8-8V64h128v40
		c0,4.416,3.576,8,8,8h88v232c0,4.408-3.584,8-8,8H56C51.584,352,48,348.408,48,344z"/>
	<path style="fill:#007AFF;" d="M184,304c44.112,0,80-35.888,80-80c0-19.456-6.928-37.768-19.544-52.264l10.208-15.304
		c2.448-3.68,1.448-8.648-2.232-11.096s-8.64-1.456-11.096,2.224l-8.68,13.016C218.816,149.864,201.88,144,184,144
		c-44.112,0-80,35.888-80,80S139.888,304,184,304z M184,160c14.672,0,28.56,4.896,39.784,13.896l-40.168,60.264L166.4,211.2
		c-2.648-3.528-7.664-4.264-11.192-1.6c-3.536,2.648-4.256,7.664-1.6,11.2l24,32c1.512,2.016,3.88,3.2,6.392,3.2
		c0.072,0,0.152,0,0.216,0c2.592-0.072,4.992-1.4,6.44-3.56l44.504-66.744C243.448,196.688,248,209.96,248,224
		c0,35.288-28.712,64-64,64s-64-28.712-64-64S148.712,160,184,160z"/>
</g>
<g>
</g>
<g>
</g>
<g>
</g>
<g>
</g>
<g>
</g>
<g>
</g>
<g>
</g>
<g>
</g>
<g>
</g>
<g>
</g>
<g>
</g>
<g>
</g>
<g>
</g>
<g>
</g>
<g>
</g>
</svg>
