<?xml version="1.0" encoding="iso-8859-1"?>
<!-- Generator: Adobe Illustrator 19.0.0, SVG Export Plug-In . SVG Version: 6.00 Build 0)  -->
<svg version="1.1" id="Capa_1" xmlns="http://www.w3.org/2000/svg" xmlns:xlink="http://www.w3.org/1999/xlink" x="0px" y="0px"
	 viewBox="0 0 368 368" style="enable-background:new 0 0 368 368;" xml:space="preserve">
<path style="fill:#CCE4FF;" d="M360,104v240c0,8.8-7.2,16-16,16H24c-8.8,0-16-7.2-16-16V24c0-8.8,7.2-16,16-16h80
	c8.8,0,16,7.2,16,16v32v48H360z M264,232c0-22.08-8.96-42.08-23.44-56.56C226.08,160.96,206.08,152,184,152c-44.16,0-80,35.84-80,80
	c0,22.08,8.96,42.08,23.44,56.56S161.92,312,184,312C228.16,312,264,276.16,264,232z"/>
<g>
	<path style="fill:#007AFF;" d="M344,48H128V24c0-13.232-10.768-24-24-24H24C10.768,0,0,10.768,0,24v320c0,13.232,10.768,24,24,24
		h320c13.232,0,24-10.768,24-24V72C368,58.768,357.232,48,344,48z M352,344c0,4.408-3.584,8-8,8H24c-4.416,0-8-3.592-8-8V24
		c0-4.408,3.584-8,8-8h80c4.416,0,8,3.592,8,8v80c0,4.416,3.576,8,8,8h232V344z M352,96H128V64h216c4.416,0,8,3.592,8,8V96z"/>
	<path style="fill:#007AFF;" d="M121.784,294.216C138.416,310.84,160.504,320,184,320c48.52,0,88-39.48,88-88
		c0-23.496-9.16-45.584-25.784-62.216C229.584,153.16,207.496,144,184,144c-48.52,0-88,39.48-88,88
		C96,255.496,105.16,277.584,121.784,294.216z M184,304c-16.528,0-32.192-5.576-44.912-15.776l101.144-101.136
		C250.424,199.808,256,215.472,256,232C256,271.696,223.704,304,184,304z M184,160c16.528,0,32.192,5.568,44.912,15.776
		L127.776,276.912C117.576,264.192,112,248.528,112,232C112,192.304,144.296,160,184,160z"/>
</g>
<g>
</g>
<g>
</g>
<g>
</g>
<g>
</g>
<g>
</g>
<g>
</g>
<g>
</g>
<g>
</g>
<g>
</g>
<g>
</g>
<g>
</g>
<g>
</g>
<g>
</g>
<g>
</g>
<g>
</g>
</svg>
