<?xml version="1.0" encoding="iso-8859-1"?>
<!-- Generator: Adobe Illustrator 19.0.0, SVG Export Plug-In . SVG Version: 6.00 Build 0)  -->
<svg version="1.1" id="Capa_1" xmlns="http://www.w3.org/2000/svg" xmlns:xlink="http://www.w3.org/1999/xlink" x="0px" y="0px"
	 viewBox="0 0 368 368" style="enable-background:new 0 0 368 368;" xml:space="preserve">
<path style="fill:#CCE4FF;" d="M232,56v48h96v240c0,8.8-7.2,16-16,16H56c-8.88,0-16-7.2-16-16V24c0-8.8,7.12-16,16-16h176V56z
	 M264,232c0-22.08-8.96-42.08-23.44-56.56C226.08,160.96,206.08,152,184,152c-44.16,0-80,35.84-80,80
	c0,22.08,8.96,42.08,23.44,56.56S161.92,312,184,312C228.16,312,264,276.16,264,232z"/>
<g>
	<path style="fill:#007AFF;" d="M184,320c48.52,0,88-39.48,88-88c0-23.496-9.16-45.584-25.784-62.216
		C229.584,153.16,207.496,144,184,144c-48.52,0-88,39.48-88,88c0,23.496,9.16,45.584,25.784,62.216
		C138.416,310.84,160.504,320,184,320z M184,304c-16.528,0-32.192-5.576-44.912-15.776l101.144-101.136
		C250.424,199.808,256,215.472,256,232C256,271.696,223.704,304,184,304z M184,160c16.528,0,32.192,5.568,44.912,15.776
		L127.776,276.912C117.576,264.192,112,248.528,112,232C112,192.304,144.296,160,184,160z"/>
	<path style="fill:#007AFF;" d="M312,368c13.232,0,24-10.768,24-24V88c0-2.12-0.84-4.16-2.344-5.656l-80-80
		C252.16,0.84,250.128,0,248,0H56C42.768,0,32,10.768,32,24v320c0,13.232,10.768,24,24,24H312z M240,16h4.688L320,91.312V96h-80V16z
		 M48,344V24c0-4.408,3.584-8,8-8h168v32H88c-4.424,0-8,3.584-8,8v48c0,4.416,3.576,8,8,8s8-3.584,8-8V64h128v40
		c0,4.416,3.576,8,8,8h88v232c0,4.408-3.584,8-8,8H56C51.584,352,48,348.408,48,344z"/>
</g>
<g>
</g>
<g>
</g>
<g>
</g>
<g>
</g>
<g>
</g>
<g>
</g>
<g>
</g>
<g>
</g>
<g>
</g>
<g>
</g>
<g>
</g>
<g>
</g>
<g>
</g>
<g>
</g>
<g>
</g>
</svg>
